<svg width="791" height="802" viewBox="0 0 791 802" fill="none" xmlns="http://www.w3.org/2000/svg">
<path d="M394.559 267.037C322.212 267.037 263.172 326.902 263.172 400.26C263.172 473.618 322.212 533.483 394.559 533.483C466.905 533.483 525.946 473.618 525.946 400.26C525.946 326.902 466.905 267.037 394.559 267.037ZM788.621 400.26C788.621 345.092 789.114 290.423 786.058 235.355C783.003 171.392 779.159 106.929 733.031 60.1556C694.59 11.1837 635.156 0.789013 604.995 0.78971C550.502 0.790971 448.967 0.78971 394.658 0.78971C340.25 0.78971 285.165 0.789984 231.165 0.78962C169.665 -1.73986 109.165 -1.5157 53.665 54.7598C-9.83496 115.76 1.66504 185.76 1.66501 232.76C-1.3905 287.928 0.694368 345.192 0.694368 400.26C0.694368 455.328 0.621338 512.29 0.621354 567.79C-1.37866 650.29 4.49303 695.016 50.6213 741.79C96.8482 788.663 128.621 802.29 230.121 799.73C284.621 799.73 340.348 799.73 394.658 799.73C449.065 799.73 502.191 802.828 556.5 799.73C640 805.5 690.872 791.773 737 745C783.227 698.127 794 644.5 789 566C789 510.5 788.621 455.428 788.621 400.26ZM394.559 605.242C282.688 605.242 192.403 513.695 192.403 400.26C192.403 286.825 282.688 195.278 394.559 195.278C506.43 195.278 596.716 286.825 596.716 400.26C596.716 513.695 506.43 605.242 394.559 605.242ZM604.995 234.755C578.875 234.755 557.782 213.367 557.782 186.883C557.782 160.398 578.875 139.01 604.995 139.01C631.115 139.01 652.208 160.398 652.208 186.883C652.215 193.172 650.999 199.4 648.63 205.212C646.26 211.024 642.782 216.304 638.397 220.751C634.011 225.198 628.803 228.724 623.072 231.127C617.34 233.53 611.197 234.763 604.995 234.755Z" fill="black"/>
</svg>
