<svg width="470" height="386" viewBox="0 0 470 386" fill="none" xmlns="http://www.w3.org/2000/svg">

<style>
    @media (prefers-color-scheme: dark) {
      path {
          fill: #fff;
      }
    }
    @media (prefers-color-scheme: light) {
      path {
          fill: #000;
      }
    }
</style>

<path d="M341.729 168.103C355.828 154.159 374.858 146.338 394.687 146.338C414.517 146.338 433.547 154.159 447.646 168.103C454.597 174.98 460.115 183.168 463.881 192.192C467.647 201.216 469.586 210.897 469.586 220.675C469.586 230.454 467.647 240.135 463.881 249.159C460.115 258.183 454.597 266.371 447.646 273.248L334.167 385.915L220.687 273.248C213.737 266.371 208.219 258.183 204.453 249.159C200.687 240.135 198.748 230.454 198.748 220.675C198.748 210.897 200.687 201.216 204.453 192.192C208.219 183.168 213.737 174.98 220.687 168.103C234.787 154.159 253.816 146.338 273.646 146.338C293.475 146.338 312.505 154.159 326.604 168.103L334.167 175.603L341.729 168.103V168.103ZM380.896 37.1026C399.742 55.9364 412.072 80.3038 416.083 106.644C387.88 101.379 358.725 106.666 334.167 121.498C311.86 108.031 285.696 102.394 259.822 105.481C233.949 108.568 209.846 120.203 191.333 138.54C170.071 159.603 157.805 188.09 157.113 218.011C156.422 247.931 167.359 276.955 187.625 298.978L191.333 302.832L241.771 352.915L209.167 385.603L32.5 208.686C11.1952 184.856 -0.170963 153.77 0.738181 121.818C1.64732 89.8656 14.7627 59.4758 37.388 36.8959C60.0133 14.3159 90.4293 1.26156 122.383 0.416534C154.337 -0.428496 185.4 11 209.187 32.3526C232.991 11.0442 264.052 -0.337658 295.987 0.545777C327.923 1.42921 358.307 14.5109 380.896 37.1026V37.1026Z" fill="black"/>
</svg>


